<mxfile host="app.diagrams.net" modified="2021-09-14T04:29:18.432Z" agent="5.0 (Windows)" etag="SDY78miWtCT2cGLUZYeV" version="15.2.5" type="github">
  <diagram id="9fBEbuSUWBr5Gk8nVwcx" name="Page-1">
    <mxGraphModel dx="2249" dy="724" grid="1" gridSize="10" guides="1" tooltips="1" connect="1" arrows="1" fold="1" page="1" pageScale="1" pageWidth="827" pageHeight="1169" math="0" shadow="0">
      <root>
        <mxCell id="0" />
        <mxCell id="1" parent="0" />
        <mxCell id="Cy0qTulh0LtAk5TKdirB-21" value="" style="rounded=0;whiteSpace=wrap;html=1;strokeColor=#3399FF;fillColor=default;" vertex="1" parent="1">
          <mxGeometry x="-40" y="120" width="850" height="380" as="geometry" />
        </mxCell>
        <mxCell id="Cy0qTulh0LtAk5TKdirB-1" value="" style="verticalLabelPosition=bottom;sketch=0;aspect=fixed;html=1;verticalAlign=top;strokeColor=none;align=center;outlineConnect=0;shape=mxgraph.citrix.proxy_server;" vertex="1" parent="1">
          <mxGeometry x="360" y="200" width="170" height="200" as="geometry" />
        </mxCell>
        <mxCell id="Cy0qTulh0LtAk5TKdirB-2" value="Node Exporter" style="rounded=1;whiteSpace=wrap;html=1;strokeColor=#3399FF;gradientColor=#3399FF;fillColor=default;" vertex="1" parent="1">
          <mxGeometry x="160" y="230" width="120" height="60" as="geometry" />
        </mxCell>
        <mxCell id="Cy0qTulh0LtAk5TKdirB-3" value="Oracle Exporter" style="rounded=1;whiteSpace=wrap;html=1;strokeColor=#3399FF;gradientColor=#3399FF;fillColor=default;" vertex="1" parent="1">
          <mxGeometry x="160" y="300" width="120" height="60" as="geometry" />
        </mxCell>
        <mxCell id="Cy0qTulh0LtAk5TKdirB-4" value="" style="shape=image;html=1;verticalAlign=top;verticalLabelPosition=bottom;labelBackgroundColor=#ffffff;imageAspect=0;aspect=fixed;image=https://cdn0.iconfinder.com/data/icons/pulse_pack_by_chromatix/128/serveur_allum.png;strokeColor=#3399FF;fillColor=default;gradientColor=#3399FF;" vertex="1" parent="1">
          <mxGeometry x="-24" y="200" width="128" height="128" as="geometry" />
        </mxCell>
        <mxCell id="Cy0qTulh0LtAk5TKdirB-5" value="" style="image;html=1;image=img/lib/clip_art/computers/Database_128x128.png;strokeColor=#3399FF;fillColor=default;gradientColor=#3399FF;" vertex="1" parent="1">
          <mxGeometry y="300" width="80" height="80" as="geometry" />
        </mxCell>
        <mxCell id="Cy0qTulh0LtAk5TKdirB-7" value="" style="shape=image;verticalLabelPosition=bottom;labelBackgroundColor=#ffffff;verticalAlign=top;aspect=fixed;imageAspect=0;image=data:image/png,iVBORw0KGgoAAAANSUhEUgAAAGUAAAApCAYAAAAs5ufYAAATR0lEQVR4nO2beXhU5b3HTzbwsbZPr21tw5JkJpPJBGRfFLxKW+tDgVYFb6XIBbLNBBFUhIuKgBtYlLJZQKJ4udYGscQFFZd6EQtalUVRK0EQAtQIQsgkmfWc877v5/7xnjkkkmgteOu98nuedzKZc97l/L7v+9uPwRn62pHxz17AGTqZ2gRFuZ/K+QSJ1P8pUKrlPe6trRv6Pv1F6uaOqVKjOSRPdKL1128itQmKdD8VSoFEYWMhUCA0s4VSDrMFqM/nowLdSSqEAguFjcBGj42yQI/udPiCAf+fUxugKBR2C8YIlDKRSiD0ZRASKaUDnvOjfRy74UPMuu2Y+/+M/dErWLVvYR/9CJU4Dro3FmAqUFJiA7Y7n0SQgsbim4xKO6BYKKVASiAOygQJSilsFLYUKARgIY7upen1/yKyZhLJpZcRv6c/sbt6Er+rB4k7+5Nc8HPiq4M0/fdSzANvoERUs1uCksoBAlAKpRQiBdIZUFqTlvoCZAJUUjNKAVJh4ezj5r8R27SM2KKhRG/KJRb6DnZpFmKcgRhvYBcbmMUGotTAKu9AfEo2zfN+QuOTs7EObQFMPZcChURDIx0xxzcZk3asLwVgokhoeFKHRikUJtaBtwivvo7mm3Kxiw1UsYEoy0KEzobyDChPg2AmMpQOoTQoN6DYwCxJo3nydwn/9l+Jbn8EJRN6PplEIbQoUwqEbHNZ3xRqHxRlI9FyXzmiBuLYH75I84KfEZn4LexyA8oNVCgdEcpCVmRByDjRytKhvCMimIU9MR1RYSDLDJJl6TTM7EnzxmVghZ2TqU7oGHVGp5xE0vlQjrUkFaDiWLWv0DB/KNHyTETQQFWkIYLpiFAGMpiBKNEiKz7BIDbeIDnBwJ5goEo0cCqYgQpmQXkWVnEazf/hpXlzZWpGlBJobSU4A8pnSOAgYUuU1CasaKyhYcVoYiVnIcsMZHkGMtgBFcxElhgkStKJTM0hPv9impddTuPykcSWXEZkdjciFd/CLjEcsZaOCmWiggZ2mUH97L4kav4EgFISpIX4ZlvE7ZwUZaGkheVYQ0LFiWy8l3DFOahSA0oNZCgTM9SBZFkasevPJbp6HIntj2Mf3Io4vBP76PvYn2zH3P0SkRfmEb6rD/GSlLjLQlWkQcggWZpFw+9GIeKHHKvM0n7mN5ja0SkCpSwSgI1AHn6Lhjv6YZdqMSQrMrEqskiWZxC+tYD4q4sQ4Y8cJzNlvUESABuZPEryg2cIL7rUASYdFUpDVaShSg0ap/yQptcfABQIpXXY/xYHvobUbphFSalNYTtK8vk5HP93g8QEg3ixFjsylE7TTZ2JbVmOEjEdilEKWyrdVykS4JgKEpSFuW8TTfOHaIstlIYIdYCyNKyyLMKLLwPzKAi+lPhSjn/zRfd8md//2XQSKAo0G6UEIbEbj3L04RCi8peox8rhoatITs0mUppGZO11SCui+ykLpWxQFlIqpFQIJbRPIzXjpLIw36mmcWpXRLmBCnXUJnRpGrEbf0T8w5cBDcrppK+K+V/VuG2Aoq0fJW2UJVHRKEfefJrnV8/j4fvn8uLq+TQ8fy/1D4zB3r+5RU+JrSRK2SglnQXr8AxSh2UsQMWP0bCqjGSpoZV+eRaiPJN4xdk0Pj8fN9Bi2/z1r39l586dvPvuu63azp07qampobGx8cTszhwpCofD1NTUYNt2mw+eYqhSij179nD48OFW1+vq6ti3b98XMjCZTLZai5TylMFqM8yCs+uFVDSHG5g/bx6DfzyUHoN+xpCfXcp9d9/C8b07IBnh/Q928Zc33yKeSDh+udI+jRuiSaCUwnRCNMg48b+sJhbsAGUGMphJcmIHohO/TfSRcqCZRNJkxYoVXHnllVx11VUntVGjRjF69GimTJlCdXU1QohWDPn444+ZNm0aV111FatWrWoFVkuyLIsnn3ySUaNGMXnyZHbt2gXA9u3bKSkpYezYsbz44ovtMi8Wi7F06VJGjhzJrFmzOHbs2AkungIwbSt6qQPrthC8svFFehYV4c3Nx5NfSH5eZy7s25NNm19n6/atjLzicoYP/TkPVy53/IxUlF4CCfRp0UEVgQBlYu/ZRHzKeVBioCrSSVZkEJ34HZIrrgBVT93ho1x8ySV07twZj8eDx+MhNzfXbXl5eeTl5ZGfn89FF13EqlWrXCYIIdiwYQM+n4+cnByGDx/O8ePH23zMaDTK2LFjyc7OJhAIUFlZiZSSBQsW0KlTJ7xeL8OHD2fbtm0n9VVKUVtbyyXOOnv27MmWLVvca6cdFB3nAss0qXzgAbp2Oo/zA34Ki7oRCATw+zxUPvQQv1u+jHO/+226ZJ/HqF+OIJE0T4yh4dDCyIlvKUyUktgH3yY+3QfFBqrCQIYMzIqzid8/DOxj7DtYR5++/cnPz6ewsJDCwkIKCgrc5vP5XFC8Xi+DBw/mtddeA/TuX7NmDR6Ph4KCAoYMGcInn3zS5sM3NTUxYsQIcnNzKSoq4r777kNKyaxZs+jSpQuBQACfz8evf/3rk0SZUooPPviAAQMGkJ+fT7du3Xj++ecB2j2ZpwQK0gYhEbZg/frn+FFODh6/n4JAgNyCQgqKAjyzYQMbX3mVgQP70bNPD34z/27ksb3EX1lJYtsfUWYTJtos1iBLkFrfJGv/QmxqJyh2wjHlaZgTzyK+7AqwjrLvwMf06tUbr9dLUVER06ZNY926dVRVVVFVVcWaNWtYtGgRgwYNwufz4fP5uO222wCwbZvHH38cr9eLz+fjpz/96Un6oiUol19+Obm5uXTv3p1FixYhpWTOnDl06dKl1YaYNGkSDQ0NLiBKKXbt2sUFF1yA1+ulR48enyvqTh0URznbwJGjnzL5huso8BfSOSePQPcibp42mcO17xONRdi48RXWP/s0h+tqiW68n/prv0/d7ReSrHsHiY4GKGWjhNRqRlokdlQRrzgLSg0IZaLK0ohOOovI6mIQjRyrb+TffnU1uTk5XHjhhWzfvv2kJUYiEaZOnUpeXh5+v58xY8YAXw6U5uZmF5Ru3bqxcOFChBDceuutZGdnU1hYSH5+Pn6/n6KiIu68806SSe19KaWoqalh4MCB5Ofnc/7557ugfAWKHid0bunwSrSeD19+lKrK37BkwT2sfXAh+56+l3DVjahjNa06NW35Tz6d2plP7r0M89guFNJR7hZCCUxAmfWE19yAWWxAMAM7dBYyZNA8+WyOb7gDENTXN7FgwW+ZeuONrFy5krq6OsLhMA0NDTQ0NBAOh9m7dy/jx4/H4/Hg9/uZMGFCK1Dy8/O/NCiLFi1CKcXKlSsJBoPcdNNNDB8+nLy8PAoKCujZsyfLly9vF5SXXnrpqwNFKDCVQCiBDNfS+PvriDw0hobfT8JaNZ7oXb0JT/o+yQ33oL0akMLGbtpL4u0qknteRYoIStrYUqeOdchGYn34IuGbA8hS7dnbwY7YFQbRG79P7INnATh08BCjr/4V48aN54YbbuD6669nypQpbrv++usZO3YsPXr0wO/34/P5WLJkySmDsnDhQgBeeOEFxowZw7hx45g7dy7Dhg1zgRkwYADr1q0DYPfu3QwcOBCv1/tVnxTt9CXR+XOVbKD5iRmEg2djT/kOYuJZxMrTiAc70jSrL4maZ52FgCKJwNR+DqZ2GAUnUlifvkPkd5djlqUhnTyLKk3HLk8jNvciVKQOBRzc/yF9evfCV+B3la3P53MZnfpeUFCA1+tl5MiRHDhwwAVl7dq17n2XXnopR44cafPhI5EIV155patTFi5ciFKK+++/H4/HQyAQ4Oabb+bZZ59lwIABeDweF+gtW7ZQW1tLnz598Hq9BAIBnnvuOReU02x9SZSMIhFuXsWq/TPhaV7UBANRnoYMpiNCmSRCHQnPv5j4e+tRmC7znRxii1CJiXnoLZofGk2soiOyPA0xMQOCaVBqEA+dQ3zDotQ24MCB3Qwc2A+PRzM+NzeX7OxsOnXqRE5ODn6/BisQCDBhwoRWOse2bZ544gnXUhsyZAiHDh1q8+EbGhr4xS9+QV5eHt26dWPp0qUIIZg1axbZ2dn4/X7Ky8uJx+OsXr2aQCDgboaRI0fy8ssvM3LkSLp06cKgQYNc0/krAQWVQGlYdHAxGSb6+FTiJRk6ixg0UME0ZHk6ifIMmub0Ir7+dhJ7X8FuPIBKNCPNKHbkCPG/bSO66X4aFw0jOvEc7PI0RCjLzcHEyzrQeM9PkMc+Ss1G7cGPGDCgP15vPt27d6e0tJT58+czd+5cRo8ejcfjobCw0N3JKVJKIYRg8+bNrljr27cvmzdvbnVPqu3Zs8e1noqKiqiqqkII4Vpffr+fYDCIUoqmpibmz5/vnla/38/YsWOZN28e1157LbfeeqvrfJ4qtWN9pbL0jr0tFaLubZrvvZjEeAMVTEdWZKBCHaA0HbvYIDblX2i8+0KiK6/BrLoBc+1UIqvHU7/wUpqmdyVZlokoy0QEs1ChDFR5BqLUoP6mHOLb/gDEUU4Z04Hagwzsr2V1r169WLt2LdFolHA4zNatWxk+fDhdu+YQCBQyePBgHn20CtkiYHbgwAEuueQSVwTNmDHD9fpbgrNkyRK8Xi9+v58BAwawY8cOLMtqBUooFHJDNUeOHGH69Ol07drVPa1XXHEF48aN4+qrr2bTpk2tgD+toDi+o0466Wg6QllY7z5G/czeRCdkQSgdQllQmqnDJWUGVmkaVrAD9rVnIyaejRXMJFlmIMoMVNDQYAQzoMxAjTdomvxDIs/diTTDKEydglawf//fGND/ArxeD7179+aZZ55pxcyX/vQn+vUfhDcnB19+VyZdW0zdJ/vdtcdjcWbPnkOnTp0oLCykf//+PPjgg9TX1wNalzz22GMMGjTI3fnFxcVYlkUymeT22293/ZSWoADs37+f8ePHu9d9Ph+BQKCV89jyNJ42UGQqI6J0pFhIha0As5741t8Tnt2X+HgDytKgPA0VzNSmbUVHVJkBTlNl6U5SS3vuVGhHMTHBoHFKJ6JP34aIHEKX4kldyoRiX+0h+g88AcpTTz3lPiyAaVo8vPoP9AwUMrt8JG8uLuXjqmkkD24Dp/hi5853ueiii8jJyaGwsJALLriAmTNn8vrrrzNjxgwGDx7s+jL9+vVj48aNACQSiVbOY0tQUp76zp07GTFiBDk5Oa4h0tL6OlVqp5bYdsIiQlea2DbSdsCyG0i+X83xZaM4VnGOzo2UGdgVHbErOkIw3dE7mchQBiKU5njtBqLEIFKaTsOcHkQ3LUFGa7GRxMEpyIuhsPmotpZevfvgy/fRo0cPqqurXaakgGlsambVA8upWX4D8uYikpPOo35FMTJ+FIlW+OvWraNv37507tyZvLw8rrnmGubMmYPH4yEvL4+cnBx69uxJZWWly/hEIsHMmTPp3LkzhYWFFBcXY5o6fCSEcOd/9dVXXdADgQBFRUVs2LDB5eDpD0gq7fSZKAQWCBMsiVSp2sUE5uHtND13O0139yMaOgtrvIGcYCBLDO2DlGiwRKmBNcEgWtaRhpt70PRoBWbNUyirUeduJFgSp/zVBCR1Rw7z4x//hHPPPZdu3bq5sjoFin5gQbQpTPMz8wmPTccaY/DpPUMR8U/1GpUgHo9TXV3NiBEj8Hg8DBs2jDvuuIO8vDw8Hg9Dhw7lkUceIRJJ5YQUpmmyePFivve975Gdnc306dNbiaPUaRFCUF1dTffu3fnBD37A+eefzxtvvPEPA/HFoKBdwjiQQGEry6mStJEyVfQtUIlPMfdtIvnSvcQrxxC9+0IaZng5fmM2DVPOo2G6h8jt/YktvZLYk7NJvPcMovGgkzRGGxRCge0U4Em9u5KmSXX1EwSDQRYvXtwqb5JinpIWYGN98i7hR0LEVlxBdMcfkcpGKqXzOOgT884771BZWcmsWbNYv349K1euZNmyZWzdutUNm6QAl1Kye/dubrnlFqZOncqOHTvcOVv+BX2qHn30UUKhECtWrGgF7mkGRdtdComtdN2viUKnqJIgRapW2yVpRbDra7H2v0b8vceJbVtF7M3VxN5+GrNmC6KuBhWrJ1VPrA0Jvdt1oFKPp9PA+nfTNDl06BBNTU1tr1wJXWShbOzGWuyj7yFF1C1O+ixbkskkdXV11NfXk0gkiMfjbQ/rMPTo0aPtRpdbUmqdpwsQaAcUiQUqAcJGSX1qUjW+AulYZjgh+ROOol6OjY4NWyeNLFs0XeonU5oLy+mp3P4tVtTWgyoB6jNZPqU1oTxFvnx2vr83x3+60sNt5uhdS0gmUU41vFRK50LghFPpdhIoKVCqRSV+aveTMq9PXE9JKpmSWu7ZVC3+OyHD235YgVROgbiUKKlfy5BIpGrrrDhLbaEX2rrW0pRtmWJuaw0t7z9V36QltQOK46NgOrsZfTRSctc5FyrVwcmVIAVSnUiSCXTGUfd3RJVyXhdKoaNLZ5ymj17LEE37D3vi1QnR4ry56/0cUP7e6pe/997TCQh87ptc+lvrE9HOxMq59tnjTEsGp66rFn1aDdDG/J9HJ94ya/m+GS3X+3+Uzrzz+DWkM6B8DekMKF9DOgPK15D+B7iA8FDh4CXiAAAAAElFTkSuQmCC;" vertex="1" parent="1">
          <mxGeometry x="380" y="410" width="101" height="41" as="geometry" />
        </mxCell>
        <mxCell id="Cy0qTulh0LtAk5TKdirB-8" value="" style="shape=image;verticalLabelPosition=bottom;labelBackgroundColor=#ffffff;verticalAlign=top;aspect=fixed;imageAspect=0;image=https://miro.medium.com/max/480/1*zGr57sh6Wk0KWjHGVza6Ww.png;" vertex="1" parent="1">
          <mxGeometry x="590" y="200" width="190" height="190" as="geometry" />
        </mxCell>
        <mxCell id="Cy0qTulh0LtAk5TKdirB-9" value="&lt;b&gt;Serveur Prometheus&lt;/b&gt;" style="text;html=1;strokeColor=none;fillColor=none;align=center;verticalAlign=middle;whiteSpace=wrap;rounded=0;" vertex="1" parent="1">
          <mxGeometry x="622.5" y="361" width="125" height="49" as="geometry" />
        </mxCell>
        <mxCell id="Cy0qTulh0LtAk5TKdirB-10" value="&lt;b&gt;Agents Prometheus&lt;/b&gt;" style="text;html=1;strokeColor=none;fillColor=none;align=center;verticalAlign=middle;whiteSpace=wrap;rounded=0;" vertex="1" parent="1">
          <mxGeometry x="157.5" y="370" width="125" height="45.5" as="geometry" />
        </mxCell>
        <mxCell id="Cy0qTulh0LtAk5TKdirB-11" value="" style="endArrow=classic;html=1;exitX=0;exitY=0.5;exitDx=0;exitDy=0;" edge="1" parent="1" source="Cy0qTulh0LtAk5TKdirB-3" target="Cy0qTulh0LtAk5TKdirB-5">
          <mxGeometry width="50" height="50" relative="1" as="geometry">
            <mxPoint x="120" y="400" as="sourcePoint" />
            <mxPoint x="170" y="350" as="targetPoint" />
          </mxGeometry>
        </mxCell>
        <mxCell id="Cy0qTulh0LtAk5TKdirB-13" value="" style="endArrow=classic;html=1;exitX=-0.017;exitY=0.883;exitDx=0;exitDy=0;exitPerimeter=0;" edge="1" parent="1" source="Cy0qTulh0LtAk5TKdirB-2" target="Cy0qTulh0LtAk5TKdirB-4">
          <mxGeometry width="50" height="50" relative="1" as="geometry">
            <mxPoint x="110" y="300" as="sourcePoint" />
            <mxPoint x="160" y="250" as="targetPoint" />
          </mxGeometry>
        </mxCell>
        <mxCell id="Cy0qTulh0LtAk5TKdirB-15" value="" style="endArrow=classic;startArrow=classic;html=1;entryX=1;entryY=0.5;entryDx=0;entryDy=0;exitX=1;exitY=0.75;exitDx=0;exitDy=0;" edge="1" parent="1" source="Cy0qTulh0LtAk5TKdirB-3" target="Cy0qTulh0LtAk5TKdirB-2">
          <mxGeometry width="50" height="50" relative="1" as="geometry">
            <mxPoint x="290" y="340" as="sourcePoint" />
            <mxPoint x="170" y="350" as="targetPoint" />
            <Array as="points">
              <mxPoint x="360" y="280" />
            </Array>
          </mxGeometry>
        </mxCell>
        <mxCell id="Cy0qTulh0LtAk5TKdirB-16" value="HTTP" style="text;html=1;strokeColor=none;fillColor=none;align=center;verticalAlign=middle;whiteSpace=wrap;rounded=0;" vertex="1" parent="1">
          <mxGeometry x="300" y="230" width="40" height="20" as="geometry" />
        </mxCell>
        <mxCell id="Cy0qTulh0LtAk5TKdirB-17" value="HTTP" style="text;html=1;strokeColor=none;fillColor=none;align=center;verticalAlign=middle;whiteSpace=wrap;rounded=0;" vertex="1" parent="1">
          <mxGeometry x="300" y="330" width="40" height="20" as="geometry" />
        </mxCell>
        <mxCell id="Cy0qTulh0LtAk5TKdirB-18" value="" style="endArrow=classic;html=1;strokeColor=#FF0000;" edge="1" parent="1" target="Cy0qTulh0LtAk5TKdirB-8">
          <mxGeometry width="50" height="50" relative="1" as="geometry">
            <mxPoint x="520" y="297" as="sourcePoint" />
            <mxPoint x="580" y="240" as="targetPoint" />
          </mxGeometry>
        </mxCell>
        <mxCell id="Cy0qTulh0LtAk5TKdirB-19" value="&lt;b&gt;PULL&lt;/b&gt;" style="text;html=1;strokeColor=none;fillColor=none;align=center;verticalAlign=middle;whiteSpace=wrap;rounded=0;" vertex="1" parent="1">
          <mxGeometry x="290" y="280" width="40" height="20" as="geometry" />
        </mxCell>
        <mxCell id="Cy0qTulh0LtAk5TKdirB-20" value="&lt;b&gt;PUSH&lt;/b&gt;" style="text;html=1;strokeColor=none;fillColor=none;align=center;verticalAlign=middle;whiteSpace=wrap;rounded=0;" vertex="1" parent="1">
          <mxGeometry x="540" y="260" width="40" height="20" as="geometry" />
        </mxCell>
        <mxCell id="Cy0qTulh0LtAk5TKdirB-22" value="&lt;b&gt;Serveur de bases de données&lt;/b&gt;" style="text;html=1;strokeColor=none;fillColor=none;align=center;verticalAlign=middle;whiteSpace=wrap;rounded=0;" vertex="1" parent="1">
          <mxGeometry x="-30" y="400" width="140" height="20" as="geometry" />
        </mxCell>
      </root>
    </mxGraphModel>
  </diagram>
</mxfile>
